# xmcd
#
# Track frame offsets:
#	150
#	18285
#	34128
#	54940
#	74431
#	83874
#	106539
#	122512
#	140155
#	161935
#	178808
#
# Disc length: 2750 seconds
#
# Revision: 0
# Processed by: cddbd v1.5.2PL0 Copyright (c) Steve Scherf et al.
# Submitted via: dBpowerAMP V4.0
#
DISCID=910abc0b
DTITLE=Muse - Black Holes And Revelations
DYEAR=1900
DGENRE=
TTITLE0=Tabe A Bow
TTITLE1=Starlight
TTITLE2=Supermassive Black Hole
TTITLE3=Map Of The Problematique
TTITLE4=Soldier's Poem
TTITLE5=Invincible
TTITLE6=Assassin
TTITLE7=Exo Politics
TTITLE8=City Of Delusion
TTITLE9=Hoodoo
TTITLE10=Knights Of Cydonia
EXTD=
EXTT0=
EXTT1=
EXTT2=
EXTT3=
EXTT4=
EXTT5=
EXTT6=
EXTT7=
EXTT8=
EXTT9=
EXTT10=
PLAYORDER=
